<svg viewBox="0 0 15.7559 15.7567" xmlns="http://www.w3.org/2000/svg" xmlns:xlink="http://www.w3.org/1999/xlink" width="15.755859" height="15.756714" fill="none" customFrame="#000000">
	<path id="Vector" d="M15.4238 13.8329C15.6352 14.0442 15.7539 14.3309 15.7539 14.6298C15.7539 14.9286 15.6352 15.2153 15.4238 15.4266C15.2125 15.638 14.9258 15.7567 14.627 15.7567C14.3281 15.7567 14.0414 15.638 13.8301 15.4266L7.87789 9.47258L1.92383 15.4248C1.71248 15.6361 1.42584 15.7548 1.12695 15.7548C0.828066 15.7548 0.541421 15.6361 0.330077 15.4248C0.118732 15.2134 4.45375e-09 14.9268 0 14.6279C-4.45375e-09 14.329 0.118732 14.0424 0.330077 13.831L6.28414 7.87883L0.331951 1.92476C0.120607 1.71342 0.00187504 1.42677 0.00187504 1.12789C0.00187505 0.829003 0.120607 0.542358 0.331951 0.331014C0.543296 0.11967 0.82994 0.000937346 1.12883 0.000937343C1.42771 0.000937339 1.71436 0.11967 1.9257 0.331014L7.87789 6.28508L13.832 0.330076C14.0433 0.118732 14.3299 -4.97944e-09 14.6288 0C14.9277 4.97944e-09 15.2144 0.118732 15.4257 0.330076C15.637 0.541421 15.7558 0.828065 15.7558 1.12695C15.7558 1.42584 15.637 1.71248 15.4257 1.92383L9.47164 7.87883L15.4238 13.8329Z" fill="rgb(30,41,59)" fill-rule="nonzero" />
</svg>
