<svg viewBox="0 0 19.4998 20.25" xmlns="http://www.w3.org/2000/svg" xmlns:xlink="http://www.w3.org/1999/xlink" width="19.499756" height="20.250000" fill="none" customFrame="#000000">
	<path id="Vector" d="M9.56217 11.7506C9.45955 11.5959 9.32023 11.469 9.15666 11.3812C8.99308 11.2934 8.81031 11.2475 8.62467 11.2475C8.43902 11.2475 8.25626 11.2934 8.09268 11.3812C7.9291 11.469 7.78979 11.5959 7.68717 11.7506L6.28092 13.8581L5.65279 12.9122C5.54912 12.757 5.40846 12.63 5.24347 12.5426C5.07849 12.4553 4.89437 12.4104 4.70771 12.412C4.52105 12.4136 4.33771 12.4616 4.17423 12.5517C4.01075 12.6418 3.87225 12.7712 3.77123 12.9281L0.178729 18.5166C0.0694733 18.6865 0.00798684 18.8827 0.000726875 19.0846C-0.00653309 19.2865 0.0407013 19.4866 0.13747 19.6639C0.234238 19.8412 0.37697 19.9892 0.550676 20.0924C0.724382 20.1955 0.922653 20.2499 1.12467 20.25L13.1247 20.25C13.3285 20.2503 13.5285 20.1952 13.7035 20.0907C13.8784 19.9861 14.0217 19.836 14.1179 19.6564C14.2142 19.4768 14.2598 19.2744 14.25 19.0708C14.2402 18.8672 14.1753 18.6702 14.0622 18.5006L9.56217 11.7506ZM3.18717 18L4.73404 15.5906L5.3481 16.5103C5.45073 16.665 5.59004 16.7919 5.75362 16.8797C5.91719 16.9675 6.09996 17.0134 6.2856 17.0134C6.47125 17.0134 6.65401 16.9675 6.81759 16.8797C6.98117 16.7919 7.12048 16.665 7.2231 16.5103L8.62935 14.4028L11.0228 18L3.18717 18ZM19.1706 5.57906L13.9206 0.329063C13.816 0.224624 13.6919 0.141808 13.5554 0.0853468C13.4188 0.0288852 13.2724 -0.000115859 13.1247 3.47849e-07L4.12467 3.47849e-07C3.62739 3.47849e-07 3.15047 0.197544 2.79884 0.549175C2.44721 0.900806 2.24967 1.37772 2.24967 1.875L2.24967 9.75C2.24967 10.0484 2.36819 10.3345 2.57917 10.5455C2.79015 10.7565 3.0763 10.875 3.37467 10.875C3.67304 10.875 3.95918 10.7565 4.17016 10.5455C4.38114 10.3345 4.49967 10.0484 4.49967 9.75L4.49967 2.25L11.6247 2.25L11.6247 6.75C11.6247 7.04837 11.7432 7.33452 11.9542 7.5455C12.1652 7.75647 12.4513 7.875 12.7497 7.875L17.2497 7.875L17.2497 18C16.9513 18 16.6652 18.1185 16.4542 18.3295C16.2432 18.5405 16.1247 18.8266 16.1247 19.125C16.1247 19.4234 16.2432 19.7095 16.4542 19.9205C16.6652 20.1315 16.9513 20.25 17.2497 20.25L17.6247 20.25C18.1219 20.25 18.5989 20.0525 18.9505 19.7008C19.3021 19.3492 19.4997 18.8723 19.4997 18.375L19.4997 6.375C19.4998 6.22722 19.4708 6.08086 19.4143 5.94429C19.3579 5.80772 19.275 5.68362 19.1706 5.57906ZM13.8747 3.46875L16.0309 5.625L13.8747 5.625L13.8747 3.46875Z" fill="rgb(30,41,59)" fill-rule="nonzero" />
</svg>
