<svg viewBox="0 0 14 14" xmlns="http://www.w3.org/2000/svg" xmlns:xlink="http://www.w3.org/1999/xlink" width="14.000000" height="14.000000" fill="none" customFrame="#000000">
	<path id="Vector" d="M13.1163 5.42625C12.8806 5.18 12.6369 4.92625 12.545 4.70312C12.46 4.49875 12.455 4.16 12.45 3.83187C12.4406 3.22187 12.4306 2.53062 11.95 2.05C11.4694 1.56937 10.7781 1.55937 10.1681 1.55C9.84 1.545 9.50125 1.54 9.29688 1.455C9.07438 1.36312 8.82 1.11937 8.57375 0.88375C8.1425 0.469375 7.6525 0 7 0C6.3475 0 5.85813 0.469375 5.42625 0.88375C5.18 1.11937 4.92625 1.36312 4.70312 1.455C4.5 1.54 4.16 1.545 3.83187 1.55C3.22187 1.55937 2.53062 1.56937 2.05 2.05C1.56937 2.53062 1.5625 3.22187 1.55 3.83187C1.545 4.16 1.54 4.49875 1.455 4.70312C1.36312 4.92562 1.11937 5.18 0.88375 5.42625C0.469375 5.8575 0 6.3475 0 7C0 7.6525 0.469375 8.14187 0.88375 8.57375C1.11937 8.82 1.36312 9.07375 1.455 9.29688C1.54 9.50125 1.545 9.84 1.55 10.1681C1.55937 10.7781 1.56937 11.4694 2.05 11.95C2.53062 12.4306 3.22187 12.4406 3.83187 12.45C4.16 12.455 4.49875 12.46 4.70312 12.545C4.92562 12.6369 5.18 12.8806 5.42625 13.1163C5.8575 13.5306 6.3475 14 7 14C7.6525 14 8.14187 13.5306 8.57375 13.1163C8.82 12.8806 9.07375 12.6369 9.29688 12.545C9.50125 12.46 9.84 12.455 10.1681 12.45C10.7781 12.4406 11.4694 12.4306 11.95 11.95C12.4306 11.4694 12.4406 10.7781 12.45 10.1681C12.455 9.84 12.46 9.50125 12.545 9.29688C12.6369 9.07438 12.8806 8.82 13.1163 8.57375C13.5306 8.1425 14 7.6525 14 7C14 6.3475 13.5306 5.85813 13.1163 5.42625Z" fill="rgb(34,197,94)" fill-rule="nonzero" />
</svg>
